<?xml version="1.0" encoding="UTF-8" standalone="no"?>
<svg
   xmlns:dc="http://purl.org/dc/elements/1.1/"
   xmlns:cc="http://creativecommons.org/ns#"
   xmlns:rdf="http://www.w3.org/1999/02/22-rdf-syntax-ns#"
   xmlns:svg="http://www.w3.org/2000/svg"
   xmlns="http://www.w3.org/2000/svg"
   xmlns:sodipodi="http://sodipodi.sourceforge.net/DTD/sodipodi-0.dtd"
   xmlns:inkscape="http://www.inkscape.org/namespaces/inkscape"
   width="22.860001mm"
   height="28.950001mm"
   viewBox="0 0 22.86 28.95"
   id="RFduino_Breadboard"
   version="1.1"
   inkscape:version="0.48.2 r9819"
   sodipodi:docname="svg.breadboard.rfduino_breadboard.svg">
  <metadata
     id="metadata17">
    <rdf:RDF>
      <cc:Work
         rdf:about="">
        <dc:format>image/svg+xml</dc:format>
        <dc:type
           rdf:resource="http://purl.org/dc/dcmitype/StillImage" />
      </cc:Work>
    </rdf:RDF>
  </metadata>
  <defs
     id="defs15" />
  <sodipodi:namedview
     pagecolor="#ffffff"
     bordercolor="#666666"
     borderopacity="1"
     objecttolerance="10"
     gridtolerance="10"
     guidetolerance="10"
     inkscape:pageopacity="0"
     inkscape:pageshadow="2"
     inkscape:window-width="1440"
     inkscape:window-height="852"
     id="namedview13"
     showgrid="false"
     inkscape:zoom="6.1903664"
     inkscape:cx="40.5"
     inkscape:cy="51.289371"
     inkscape:window-x="0"
     inkscape:window-y="0"
     inkscape:window-maximized="1"
     inkscape:current-layer="RFduino_Breadboard" />
  <g
     id="breadboard"
     transform="matrix(0.00254,0,0,0.00254,3.0555263e-7,-7.7390623e-7)">
    <rect
       id="_pcb"
       x="-0.00012029631"
       y="0.00030468751"
       width="9000"
       height="11397.638"
       style="fill:#2f632e" />
    <g
       id="longconnector"
       transform="matrix(0,-1,1,0,-1.2029631e-4,11397.637)">
      <rect
         width="7000"
         height="1000"
         id="rect8"
         x="0"
         y="0"
         style="fill:#404040" />
      <rect
         width="386.54401"
         x="306.72699"
         y="306.72699"
         gorn="0.0.1"
         height="386.54401"
         id="connector6pin"
         style="fill:none" />
      <rect
         width="299.763"
         x="349.76999"
         y="343.13101"
         gorn="0.0.2"
         height="313.414"
         id="connector6terminal"
         style="fill:none" />
      <rect
         width="386.54401"
         x="306.72699"
         y="306.72699"
         height="386.54401"
         id="rect12" />
      <polygon
         points="835.631,164.507 164.507,164.507 306.727,306.727 693.272,306.727 "
         id="polygon14"
         style="fill:#2a2a29" />
      <polygon
         points="835.631,835.631 835.631,164.507 693.272,306.727 693.272,693.272 "
         id="polygon16"
         style="fill:#474747" />
      <polygon
         points="164.507,835.631 835.631,835.631 693.272,693.272 306.727,693.272 "
         id="polygon18"
         style="fill:#595959" />
      <polygon
         points="164.507,164.507 164.507,835.631 306.727,693.272 306.727,306.727 "
         id="polygon20"
         style="fill:#373737" />
      <rect
         width="386.54401"
         x="1306.73"
         y="306.72699"
         gorn="0.0.8"
         height="386.54401"
         id="connector5pin"
         style="fill:none" />
      <rect
         width="299.763"
         x="1349.77"
         y="343.13101"
         gorn="0.0.9"
         height="313.414"
         id="connector5terminal"
         style="fill:none" />
      <rect
         width="386.54401"
         x="1306.73"
         y="306.72699"
         height="386.54401"
         id="rect24" />
      <polygon
         points="1835.63,164.507 1164.51,164.507 1306.73,306.727 1693.27,306.727 "
         id="polygon26"
         style="fill:#2a2a29" />
      <polygon
         points="1835.63,835.631 1835.63,164.507 1693.27,306.727 1693.27,693.272 "
         id="polygon28"
         style="fill:#474747" />
      <polygon
         points="1164.51,835.631 1835.63,835.631 1693.27,693.272 1306.73,693.272 "
         id="polygon30"
         style="fill:#595959" />
      <polygon
         points="1164.51,164.507 1164.51,835.631 1306.73,693.272 1306.73,306.727 "
         id="polygon32"
         style="fill:#373737" />
      <rect
         width="386.54401"
         x="2306.73"
         y="306.72699"
         gorn="0.0.15"
         height="386.54401"
         id="connector4pin"
         style="fill:none" />
      <rect
         width="299.763"
         x="2349.77"
         y="343.13101"
         gorn="0.0.16"
         height="313.414"
         id="connector4terminal"
         style="fill:none" />
      <rect
         width="386.54401"
         x="2306.73"
         y="306.72699"
         height="386.54401"
         id="rect36" />
      <polygon
         points="2835.63,164.507 2164.51,164.507 2306.73,306.727 2693.27,306.727 "
         id="polygon38"
         style="fill:#2a2a29" />
      <polygon
         points="2835.63,835.631 2835.63,164.507 2693.27,306.727 2693.27,693.272 "
         id="polygon40"
         style="fill:#474747" />
      <polygon
         points="2164.51,835.631 2835.63,835.631 2693.27,693.272 2306.73,693.272 "
         id="polygon42"
         style="fill:#595959" />
      <polygon
         points="2164.51,164.507 2164.51,835.631 2306.73,693.272 2306.73,306.727 "
         id="polygon44"
         style="fill:#373737" />
      <rect
         width="386.54401"
         x="3306.73"
         y="306.72699"
         gorn="0.0.22"
         height="386.54401"
         id="connector3pin"
         style="fill:none" />
      <rect
         width="299.763"
         x="3349.77"
         y="343.13101"
         gorn="0.0.23"
         height="313.414"
         id="connector3terminal"
         style="fill:none" />
      <rect
         width="386.54401"
         x="3306.73"
         y="306.72699"
         height="386.54401"
         id="rect48" />
      <polygon
         points="3835.63,164.507 3164.51,164.507 3306.73,306.727 3693.27,306.727 "
         id="polygon50"
         style="fill:#2a2a29" />
      <polygon
         points="3835.63,835.631 3835.63,164.507 3693.27,306.727 3693.27,693.272 "
         id="polygon52"
         style="fill:#474747" />
      <polygon
         points="3164.51,835.631 3835.63,835.631 3693.27,693.272 3306.73,693.272 "
         id="polygon54"
         style="fill:#595959" />
      <polygon
         points="3164.51,164.507 3164.51,835.631 3306.73,693.272 3306.73,306.727 "
         id="polygon56"
         style="fill:#373737" />
      <rect
         width="386.54401"
         x="4306.73"
         y="306.72699"
         gorn="0.0.29"
         height="386.54401"
         id="connector2pin"
         style="fill:none" />
      <rect
         width="299.763"
         x="4349.77"
         y="343.13101"
         gorn="0.0.30"
         height="313.414"
         id="connector2terminal"
         style="fill:none" />
      <rect
         width="386.54401"
         x="4306.73"
         y="306.72699"
         height="386.54401"
         id="rect60" />
      <polygon
         points="4835.63,164.507 4164.51,164.507 4306.73,306.727 4693.27,306.727 "
         id="polygon62"
         style="fill:#2a2a29" />
      <polygon
         points="4835.63,835.631 4835.63,164.507 4693.27,306.727 4693.27,693.272 "
         id="polygon64"
         style="fill:#474747" />
      <polygon
         points="4164.51,835.631 4835.63,835.631 4693.27,693.272 4306.73,693.272 "
         id="polygon66"
         style="fill:#595959" />
      <polygon
         points="4164.51,164.507 4164.51,835.631 4306.73,693.272 4306.73,306.727 "
         id="polygon68"
         style="fill:#373737" />
      <rect
         width="386.54401"
         x="5306.73"
         y="306.72699"
         gorn="0.0.36"
         height="386.54401"
         id="connector1pin"
         style="fill:none" />
      <rect
         width="299.763"
         x="5349.77"
         y="343.13101"
         gorn="0.0.37"
         height="313.414"
         id="connector1terminal"
         style="fill:none" />
      <rect
         width="386.54401"
         x="5306.73"
         y="306.72699"
         height="386.54401"
         id="rect72" />
      <polygon
         points="5835.63,164.507 5164.51,164.507 5306.73,306.727 5693.27,306.727 "
         id="polygon74"
         style="fill:#2a2a29" />
      <polygon
         points="5835.63,835.631 5835.63,164.507 5693.27,306.727 5693.27,693.272 "
         id="polygon76"
         style="fill:#474747" />
      <polygon
         points="5164.51,835.631 5835.63,835.631 5693.27,693.272 5306.73,693.272 "
         id="polygon78"
         style="fill:#595959" />
      <polygon
         points="5164.51,164.507 5164.51,835.631 5306.73,693.272 5306.73,306.727 "
         id="polygon80"
         style="fill:#373737" />
      <rect
         width="386.54401"
         x="6306.73"
         y="306.72699"
         gorn="0.0.43"
         height="386.54401"
         id="connector0pin"
         style="fill:none" />
      <rect
         width="299.763"
         x="6349.77"
         y="343.13101"
         gorn="0.0.44"
         height="313.414"
         id="connector0terminal"
         style="fill:none" />
      <rect
         width="386.54401"
         x="6306.73"
         y="306.72699"
         height="386.54401"
         id="rect84" />
      <polygon
         points="6835.63,164.507 6164.51,164.507 6306.73,306.727 6693.27,306.727 "
         id="polygon86"
         style="fill:#2a2a29" />
      <polygon
         points="6835.63,835.631 6835.63,164.507 6693.27,306.727 6693.27,693.272 "
         id="polygon88"
         style="fill:#474747" />
      <polygon
         points="6164.51,835.631 6835.63,835.631 6693.27,693.272 6306.73,693.272 "
         id="polygon90"
         style="fill:#595959" />
      <polygon
         points="6164.51,164.507 6164.51,835.631 6306.73,693.272 6306.73,306.727 "
         id="polygon92"
         style="fill:#373737" />
    </g>
    <g
       id="shortconnector"
       transform="matrix(0,1,-1,0,8999.9999,6397.6376)">
      <rect
         width="5000"
         height="1000"
         id="rect59"
         x="0"
         y="0"
         style="fill:#404040" />
      <rect
         width="386.54401"
         x="306.72699"
         y="306.72699"
         gorn="0.0.1"
         height="386.54401"
         id="connector11pin"
         style="fill:none" />
      <rect
         width="299.763"
         x="349.76999"
         y="343.13101"
         gorn="0.0.2"
         height="313.414"
         id="connector11terminal"
         style="fill:none" />
      <rect
         width="386.54401"
         x="306.72699"
         y="306.72699"
         height="386.54401"
         id="rect63" />
      <polygon
         points="306.727,306.727 693.272,306.727 835.631,164.507 164.507,164.507 "
         id="polygon65"
         style="fill:#2a2a29" />
      <polygon
         points="693.272,306.727 693.272,693.272 835.631,835.631 835.631,164.507 "
         id="polygon67"
         style="fill:#474747" />
      <polygon
         points="693.272,693.272 306.727,693.272 164.507,835.631 835.631,835.631 "
         id="polygon69"
         style="fill:#595959" />
      <polygon
         points="306.727,693.272 306.727,306.727 164.507,164.507 164.507,835.631 "
         id="polygon71"
         style="fill:#373737" />
      <rect
         width="386.54401"
         x="1306.73"
         y="306.72699"
         gorn="0.0.8"
         height="386.54401"
         id="connector10pin"
         style="fill:none" />
      <rect
         width="299.763"
         x="1349.77"
         y="343.13101"
         gorn="0.0.9"
         height="313.414"
         id="connector10terminal"
         style="fill:none" />
      <rect
         width="386.54401"
         x="1306.73"
         y="306.72699"
         height="386.54401"
         id="rect75" />
      <polygon
         points="1306.73,306.727 1693.27,306.727 1835.63,164.507 1164.51,164.507 "
         id="polygon77"
         style="fill:#2a2a29" />
      <polygon
         points="1693.27,306.727 1693.27,693.272 1835.63,835.631 1835.63,164.507 "
         id="polygon79"
         style="fill:#474747" />
      <polygon
         points="1693.27,693.272 1306.73,693.272 1164.51,835.631 1835.63,835.631 "
         id="polygon81"
         style="fill:#595959" />
      <polygon
         points="1306.73,693.272 1306.73,306.727 1164.51,164.507 1164.51,835.631 "
         id="polygon83"
         style="fill:#373737" />
      <rect
         width="386.54401"
         x="2306.73"
         y="306.72699"
         gorn="0.0.15"
         height="386.54401"
         id="connector9pin"
         style="fill:none" />
      <rect
         width="299.763"
         x="2349.77"
         y="343.13101"
         gorn="0.0.16"
         height="313.414"
         id="connector9terminal"
         style="fill:none" />
      <rect
         width="386.54401"
         x="2306.73"
         y="306.72699"
         height="386.54401"
         id="rect87" />
      <polygon
         points="2306.73,306.727 2693.27,306.727 2835.63,164.507 2164.51,164.507 "
         id="polygon89"
         style="fill:#2a2a29" />
      <polygon
         points="2693.27,306.727 2693.27,693.272 2835.63,835.631 2835.63,164.507 "
         id="polygon91"
         style="fill:#474747" />
      <polygon
         points="2693.27,693.272 2306.73,693.272 2164.51,835.631 2835.63,835.631 "
         id="polygon93"
         style="fill:#595959" />
      <polygon
         points="2306.73,693.272 2306.73,306.727 2164.51,164.507 2164.51,835.631 "
         id="polygon95"
         style="fill:#373737" />
      <rect
         width="386.54401"
         x="3306.73"
         y="306.72699"
         gorn="0.0.22"
         height="386.54401"
         id="connector8pin"
         style="fill:none" />
      <rect
         width="299.763"
         x="3349.77"
         y="343.13101"
         gorn="0.0.23"
         height="313.414"
         id="connector8terminal"
         style="fill:none" />
      <rect
         width="386.54401"
         x="3306.73"
         y="306.72699"
         height="386.54401"
         id="rect99" />
      <polygon
         points="3306.73,306.727 3693.27,306.727 3835.63,164.507 3164.51,164.507 "
         id="polygon101"
         style="fill:#2a2a29" />
      <polygon
         points="3693.27,306.727 3693.27,693.272 3835.63,835.631 3835.63,164.507 "
         id="polygon103"
         style="fill:#474747" />
      <polygon
         points="3693.27,693.272 3306.73,693.272 3164.51,835.631 3835.63,835.631 "
         id="polygon105"
         style="fill:#595959" />
      <polygon
         points="3306.73,693.272 3306.73,306.727 3164.51,164.507 3164.51,835.631 "
         id="polygon107"
         style="fill:#373737" />
      <rect
         width="386.54401"
         x="4306.73"
         y="306.72699"
         gorn="0.0.29"
         height="386.54401"
         id="connector7pin"
         style="fill:none" />
      <rect
         width="299.763"
         x="4349.77"
         y="343.13101"
         gorn="0.0.30"
         height="313.414"
         id="connector7terminal"
         style="fill:none" />
      <rect
         width="386.54401"
         x="4306.73"
         y="306.72699"
         height="386.54401"
         id="rect111" />
      <polygon
         points="4306.73,306.727 4693.27,306.727 4835.63,164.507 4164.51,164.507 "
         id="polygon113"
         style="fill:#2a2a29" />
      <polygon
         points="4693.27,306.727 4693.27,693.272 4835.63,835.631 4835.63,164.507 "
         id="polygon115"
         style="fill:#474747" />
      <polygon
         points="4693.27,693.272 4306.73,693.272 4164.51,835.631 4835.63,835.631 "
         id="polygon117"
         style="fill:#595959" />
      <polygon
         points="4306.73,693.272 4306.73,306.727 4164.51,164.507 4164.51,835.631 "
         id="polygon119"
         style="fill:#373737" />
    </g>
    <text
       xml:space="preserve"
       style="font-size:470.61727905px;font-style:normal;font-variant:normal;font-weight:normal;font-stretch:normal;line-height:125%;letter-spacing:0px;word-spacing:0px;fill:#000000;fill-opacity:1;stroke:none;font-family:Droid Sans;-inkscape-font-specification:Droid Sans"
       x="1063.334"
       y="7107.8179"
       id="text3078"
       sodipodi:linespacing="125%"><tspan
         sodipodi:role="line"
         id="tspan3080"
         x="1063.334"
         y="7107.8179">+3V</tspan></text>
    <text
       xml:space="preserve"
       style="font-size:470.61727905px;font-style:normal;font-variant:normal;font-weight:normal;font-stretch:normal;line-height:125%;letter-spacing:0px;word-spacing:0px;fill:#000000;fill-opacity:1;stroke:none;font-family:Droid Sans;-inkscape-font-specification:Droid Sans"
       x="1041.0439"
       y="8095.0151"
       id="text3082"
       sodipodi:linespacing="125%"><tspan
         sodipodi:role="line"
         id="tspan3084"
         x="1041.0439"
         y="8095.0151">RESET</tspan></text>
    <text
       xml:space="preserve"
       style="font-size:470.61727905px;font-style:normal;font-variant:normal;font-weight:normal;font-stretch:normal;line-height:125%;letter-spacing:0px;word-spacing:0px;fill:#000000;fill-opacity:1;stroke:none;font-family:Droid Sans;-inkscape-font-specification:Droid Sans"
       x="1058.0487"
       y="5097.5259"
       id="text3131"
       sodipodi:linespacing="125%"><tspan
         sodipodi:role="line"
         id="tspan3133"
         x="1058.0487"
         y="5097.5259">GND</tspan></text>
    <text
       xml:space="preserve"
       style="font-size:470.61727905px;font-style:normal;font-variant:normal;font-weight:normal;font-stretch:normal;line-height:125%;letter-spacing:0px;word-spacing:0px;fill:#000000;fill-opacity:1;stroke:none;font-family:Droid Sans;-inkscape-font-specification:Droid Sans"
       x="1058.0487"
       y="10087.358"
       id="text3135"
       sodipodi:linespacing="125%"><tspan
         sodipodi:role="line"
         x="1058.0487"
         y="10087.358"
         id="tspan3149">GPIO 0 / AREF</tspan></text>
    <text
       xml:space="preserve"
       style="font-size:470.61727905px;font-style:normal;font-variant:normal;font-weight:normal;font-stretch:normal;line-height:125%;letter-spacing:0px;word-spacing:0px;fill:#000000;fill-opacity:1;stroke:none;font-family:Droid Sans;-inkscape-font-specification:Droid Sans"
       x="1058.0487"
       y="11110.453"
       id="text3166"
       sodipodi:linespacing="125%"><tspan
         sodipodi:role="line"
         id="tspan3168"
         x="1058.0487"
         y="11110.453">GPIO 1</tspan></text>
    <text
       xml:space="preserve"
       style="font-size:470.61727905px;font-style:normal;font-variant:normal;font-weight:normal;font-stretch:normal;line-height:125%;letter-spacing:0px;word-spacing:0px;fill:#000000;fill-opacity:1;stroke:none;font-family:Droid Sans;-inkscape-font-specification:Droid Sans"
       x="6467.6279"
       y="11146.352"
       id="text3170"
       sodipodi:linespacing="125%"><tspan
         sodipodi:role="line"
         id="tspan3172"
         x="6467.6279"
         y="11146.352">GPIO 2</tspan></text>
    <text
       xml:space="preserve"
       style="font-size:470.61727905px;font-style:normal;font-variant:normal;font-weight:normal;font-stretch:normal;line-height:125%;letter-spacing:0px;word-spacing:0px;fill:#000000;fill-opacity:1;stroke:none;font-family:Droid Sans;-inkscape-font-specification:Droid Sans"
       x="6468.0874"
       y="10141.205"
       id="text3174"
       sodipodi:linespacing="125%"><tspan
         sodipodi:role="line"
         id="tspan3176"
         x="6468.0874"
         y="10141.205">GPIO 3</tspan></text>
    <text
       xml:space="preserve"
       style="font-size:470.61727905px;font-style:normal;font-variant:normal;font-weight:normal;font-stretch:normal;line-height:125%;letter-spacing:0px;word-spacing:0px;fill:#000000;fill-opacity:1;stroke:none;font-family:Droid Sans;-inkscape-font-specification:Droid Sans"
       x="6449.4741"
       y="9100.1611"
       id="text3178"
       sodipodi:linespacing="125%"><tspan
         sodipodi:role="line"
         id="tspan3180"
         x="6449.4741"
         y="9100.1611">GPIO 4</tspan></text>
    <text
       xml:space="preserve"
       style="font-size:470.61727905px;font-style:normal;font-variant:normal;font-weight:normal;font-stretch:normal;line-height:125%;letter-spacing:0px;word-spacing:0px;fill:#000000;fill-opacity:1;stroke:none;font-family:Droid Sans;-inkscape-font-specification:Droid Sans"
       x="6466.249"
       y="8112.9644"
       id="text3182"
       sodipodi:linespacing="125%"><tspan
         sodipodi:role="line"
         id="tspan3184"
         x="6466.249"
         y="8112.9644">GPIO 5</tspan></text>
    <text
       xml:space="preserve"
       style="font-size:470.61727905px;font-style:normal;font-variant:normal;font-weight:normal;font-stretch:normal;line-height:125%;letter-spacing:0px;word-spacing:0px;fill:#000000;fill-opacity:1;stroke:none;font-family:Droid Sans;-inkscape-font-specification:Droid Sans"
       x="6461.6533"
       y="7089.8691"
       id="text3186"
       sodipodi:linespacing="125%"><tspan
         sodipodi:role="line"
         id="tspan3188"
         x="6461.6533"
         y="7089.8691">GPIO 6</tspan></text>
    <text
       xml:space="preserve"
       style="font-size:470.61727905px;font-style:normal;font-variant:normal;font-weight:normal;font-stretch:normal;line-height:125%;letter-spacing:0px;word-spacing:0px;fill:#000000;fill-opacity:1;stroke:none;font-family:Droid Sans;-inkscape-font-specification:Droid Sans"
       x="1041.0439"
       y="9100.1611"
       id="text3194"
       sodipodi:linespacing="125%"><tspan
         sodipodi:role="line"
         id="tspan3196"
         x="1041.0439"
         y="9100.1611">FACTORY</tspan></text>
    <text
       xml:space="preserve"
       style="font-size:470.61727905px;font-style:normal;font-variant:normal;font-weight:normal;font-stretch:normal;line-height:125%;letter-spacing:0px;word-spacing:0px;fill:#000000;fill-opacity:1;stroke:none;font-family:Droid Sans;-inkscape-font-specification:Droid Sans"
       x="-4218.4219"
       y="8789.4082"
       id="text3202"
       sodipodi:linespacing="125%"
       transform="matrix(0,-1,1,0,0,0)"><tspan
         sodipodi:role="line"
         id="tspan3204"
         x="-4218.4219"
         y="8789.4082">RFduino</tspan></text>
    <rect
       style="fill:#aaaaaa;fill-opacity:1;fill-rule:nonzero;stroke:none"
       id="rect3206"
       width="5600.0991"
       height="3500.062"
       x="1669.2605"
       y="1094.8904" />
    <text
       xml:space="preserve"
       style="font-size:470.61727905px;font-style:normal;font-variant:normal;font-weight:normal;font-stretch:normal;line-height:125%;letter-spacing:0px;word-spacing:0px;fill:#000000;fill-opacity:1;stroke:none;font-family:Droid Sans;-inkscape-font-specification:Droid Sans"
       x="-3853.8291"
       y="-4024.968"
       id="text3976"
       sodipodi:linespacing="125%"
       transform="scale(-1,-1)"><tspan
         sodipodi:role="line"
         x="-3853.8291"
         y="-4024.968"
         id="tspan3980">RFD22301</tspan></text>
    <rect
       style="fill:#ffffff;fill-opacity:1;fill-rule:nonzero;stroke:none"
       id="rect3984"
       width="3302.6226"
       height="753.8595"
       x="3948.7878"
       y="197.43916" />
    <rect
       style="fill:#ff0000;fill-opacity:1;fill-rule:nonzero;stroke:none"
       id="rect3986"
       width="448.72589"
       height="143.59229"
       x="4182.1255"
       y="592.31805" />
  </g>
</svg>
